<?xml version="1.0" encoding="utf-8"?>
<!-- Generator: Adobe Illustrator 24.0.0, SVG Export Plug-In . SVG Version: 6.00 Build 0)  -->
<svg version="1.1" id="Capa_1" xmlns="http://www.w3.org/2000/svg" xmlns:xlink="http://www.w3.org/1999/xlink" x="0px" y="0px"
	 viewBox="0 0 256 256" style="enable-background:new 0 0 256 256;" xml:space="preserve">
<path d="M128.17,217.81c-37.08-0.58-65.99-16.1-84.44-48.64c-21.9-38.62-9.55-87.42,27.84-113.69
	c34.79-24.45,83.21-23.76,116.54,2.35c53.25,41.71,44.55,115.61-10.91,147.59C162.15,214.1,145.89,218.72,128.17,217.81z
	 M47.25,125.87c0.19,17.31,4.45,31.1,13.37,43.39c28.52,39.31,85.59,45.44,123.32,13.25c28.38-24.21,33.92-65.14,12.87-95
	c-25.7-36.44-79.97-45.67-116.52-19.84C59.42,82.42,47.8,102.2,47.25,125.87z"/>
<path d="M99.84,170.76c0-28.92,0-56.84,0-85.58c27.23,14.36,53.81,28.37,81.27,42.85C153.79,142.39,127.19,156.38,99.84,170.76z"/>
</svg>
