<?xml version="1.0" encoding="utf-8"?>
<!-- Generator: Adobe Illustrator 24.0.0, SVG Export Plug-In . SVG Version: 6.00 Build 0)  -->
<svg version="1.1" id="Capa_1" xmlns="http://www.w3.org/2000/svg" xmlns:xlink="http://www.w3.org/1999/xlink" x="0px" y="0px"
	 viewBox="0 0 256 256" style="enable-background:new 0 0 256 256;" xml:space="preserve">
<path d="M120.9,32c4.98,0,9.96,0,14.94,0c0.83,0.2,1.65,0.49,2.49,0.6c39.67,5.39,66.58,26.91,80.43,64.37
	c2.72,7.37,3.54,15.44,5.24,23.19c0,4.98,0,9.96,0,14.94c-0.21,0.96-0.52,1.91-0.63,2.89c-5.61,53.8-56.02,92.67-109.24,84.23
	c-50.68-8.04-85.95-52.68-80.65-103.78c4.13-39.85,26.25-66.8,63.55-80.97C104.58,34.59,112.92,33.77,120.9,32z M128.24,207.94
	c44.17,0.14,80.31-35.88,80.44-80.18c0.14-44.18-35.88-80.31-80.18-80.43c-44.22-0.13-80.3,35.84-80.43,80.17
	C47.94,171.7,83.93,207.81,128.24,207.94z"/>
<path d="M120.16,126.78c-0.01,12.06,0.07,24.12-0.04,36.17c-0.05,5.62-4.01,9.57-9.26,9.69c-5.3,0.12-9.26-3.59-9.77-9.2
	c-0.11-1.23-0.07-2.48-0.07-3.73c0-16.91,0-33.81,0-50.72c0-5.47-0.02-10.94,0.01-16.41c0.04-7.26,3.74-11.64,9.72-11.57
	c5.83,0.07,9.41,4.4,9.42,11.46C120.17,103.91,120.16,115.34,120.16,126.78z"/>
<path d="M158.37,127.13c0,11.95,0.12,23.91-0.05,35.86c-0.11,7.71-7.92,12.16-14.28,8.37c-3.75-2.23-4.74-5.75-4.73-9.89
	c0.06-21.66,0.03-43.33,0.03-64.99c0-1.87-0.05-3.74,0.02-5.6c0.23-5.87,4.11-9.87,9.52-9.86c5.4,0.01,9.43,4.05,9.47,9.89
	C158.45,102.97,158.38,115.05,158.37,127.13z"/>
</svg>
